<svg>
    <!--    search icon-->
    <symbol id="icon-search" viewBox="0 0 17.98 18" xmlns="http://www.w3.org/2000/svg">
        <path class="aa"
              d="M17.817 17.04l-4.95-4.976a7.33 7.33 0 1 0-.795.796l4.946 4.974a.563.563 0 1 0 .799-.794zM7.325 13.474a6.16 6.16 0 0 1-6.166-6.155v-.005a6.16 6.16 0 1 1 6.166 6.16z"
        />
    </symbol>
    <!--    ic clipboard-->
    <symbol id="icon-clipboard" viewBox="0 0 13.931 15" xmlns="http://www.w3.org/2000/svg">
        <path class="aa"
              d="M6.799 3.625a2.305 2.305 0 1 0-3.232 3.231l4.304 4.304a.522.522 0 0 0 .739-.738L4.306 6.118c-.536-.536-.878-1.338-.231-1.985.645-.647 1.449-.304 1.985.232l4.972 4.971c1.906 1.909 2.382 2.788 1.246 3.925-1.149 1.148-2.367.864-4.201-.97L2.367 6.58C1.174 5.387.338 3.44 1.907 1.872c1.86-1.862 3.986-.032 4.592.575l5.11 5.112a.522.522 0 0 0 .74-.739L7.237 1.71C5.186-.343 2.86-.562 1.167 1.133-.544 2.843-.36 5.33 1.628 7.318l5.711 5.71C7.967 13.658 9.312 15 10.858 15a3.012 3.012 0 0 0 2.16-1.002c2.075-2.076.155-3.998-1.246-5.401z"
        />
    </symbol>
    <!--    ic arrow right-->
    <symbol id="icon-arrow-right" viewBox="0 0 2.988 6" ixmlns="http://www.w3.org/2000/svg">
        <path class="aa"
              d="M2.988 3.008a.29.29 0 0 1-.073.193L.513 5.902a.29.29 0 0 1-.435-.385l2.231-2.51L.08.49A.29.29 0 0 1 .502.092l.01.011 2.402 2.712a.29.29 0 0 1 .073.193z"
        />
    </symbol>
    <!--    ic caret-->
    <symbol id="icon-caret" viewBox="0 0 8 5" xmlns="http://www.w3.org/2000/svg">
        <path class="aa" fill="#333" d="M8 5L3.993 0 0 5h8z"/>
    </symbol>
    <!--    ic calendar-->
    <symbol id="icon-calendar" viewBox="0 0 19.862 18" xmlns="http://www.w3.org/2000/svg">
        <path class="aa"
              d="M18.776 1.862H16.76v1.241h1.862V16.76H1.24V3.103h1.863V1.862H1.086A1.105 1.105 0 0 0 0 2.985v13.892A1.105 1.105 0 0 0 1.086 18h17.69a1.105 1.105 0 0 0 1.086-1.123V2.985a1.105 1.105 0 0 0-1.086-1.123z"
        />
        <path class="aa"
              d="M3.724 6.828h1.241v1.241H3.724zm3.724 0h1.241v1.241H7.448zm3.725 0h1.241v1.241h-1.241zm3.724 0h1.241v1.241h-1.241zM3.724 9.931h1.241v1.241H3.724zm3.724 0h1.241v1.241H7.448zm3.725 0h1.241v1.241h-1.241zm3.724 0h1.241v1.241h-1.241zM3.724 13.034h1.241v1.241H3.724zm3.724 0h1.241v1.241H7.448zm3.725 0h1.241v1.241h-1.241zm3.724 0h1.241v1.241h-1.241zM4.966 4.345a.62.62 0 0 0 .62-.62V.62a.62.62 0 1 0-1.241 0v3.103a.62.62 0 0 0 .62.62zm9.931 0a.62.62 0 0 0 .62-.62V.62a.62.62 0 1 0-1.24 0v3.103a.62.62 0 0 0 .62.62zM6.828 1.862h6.207v1.241H6.828z"
        />
    </symbol>
</svg>
